<svg xmlns="http://www.w3.org/2000/svg" width="742" height="742" viewBox="0 0 742 742" version="1.1"><path d="M 0 371.001 L 0 742.003 371.250 741.751 L 742.500 741.500 742.751 370.750 L 743.003 0 371.501 0 L 0 0 0 371.001 M 0.495 371.500 C 0.495 575.550, 0.610 658.876, 0.750 556.669 C 0.890 454.461, 0.890 287.511, 0.750 185.669 C 0.610 83.826, 0.495 167.450, 0.495 371.500 M 489 103.359 C 483.220 104.825, 475.009 108.280, 475.004 109.250 C 475.002 109.662, 474.363 110, 473.583 110 C 472.804 110, 472.017 110.338, 471.833 110.750 C 471.650 111.162, 469.856 112.727, 467.847 114.227 C 463.110 117.763, 454.600 129.152, 452.943 134.174 C 452.230 136.333, 451.325 138.299, 450.931 138.543 C 450.537 138.786, 447.743 137.892, 444.721 136.555 C 438.018 133.591, 426.728 129.785, 418 127.547 C 414.425 126.630, 409.925 125.474, 408 124.977 C 396.801 122.088, 366.217 121.055, 352.769 123.112 C 345.018 124.297, 321.503 129.815, 319 131.035 C 312.363 134.272, 303.715 137.117, 302.995 136.301 C 302.605 135.861, 301.209 133.488, 299.893 131.028 C 289.786 112.142, 264.302 98.138, 251.803 104.602 C 246.362 107.415, 244.251 110.191, 240.851 119 C 238.879 124.109, 239.127 147.095, 241.218 153 C 244.418 162.039, 246.373 166.560, 248.259 169.285 C 250.429 172.421, 250.299 172.716, 243.968 178.996 C 242.025 180.923, 239.347 184.075, 238.016 186 C 236.685 187.925, 235.284 189.725, 234.903 190 C 232.082 192.034, 212 229.594, 212 232.835 C 212 233.491, 211.571 234.809, 211.046 235.764 C 210.521 236.719, 209.124 240.875, 207.942 245 C 206.760 249.125, 205.423 253.625, 204.972 255 C 202.851 261.462, 198 289.547, 198 295.365 C 198 297.891, 197.553 299, 196.535 299 C 192.428 299, 164 311.369, 164 313.156 C 164 313.620, 163.100 314, 162 314 C 160.900 314, 160 314.353, 160 314.784 C 160 315.216, 158.666 316.357, 157.036 317.319 C 155.406 318.282, 153.494 319.623, 152.786 320.299 C 152.079 320.976, 149.475 323.087, 147 324.992 C 140.716 329.828, 127.304 343.443, 122.360 350.005 C 117.720 356.164, 106 373.637, 106 374.396 C 106 374.666, 104.226 378.625, 102.058 383.194 C 96.908 394.045, 92.545 407.312, 89.461 421.500 C 86.143 436.764, 84.838 471.900, 87.017 487.308 C 92.595 526.747, 105.595 557.752, 128.397 586 C 135.253 594.493, 149.836 609.277, 155.631 613.609 C 157.758 615.199, 160.399 617.314, 161.499 618.310 C 170.746 626.674, 198.156 641.932, 218 649.761 C 231.689 655.162, 254.723 661.677, 268.565 664.063 C 271.554 664.578, 276.587 665.456, 279.750 666.014 C 304.787 670.429, 330.578 672.172, 370.500 672.146 C 461.152 672.086, 514.059 660.396, 565.500 629.060 C 572.348 624.888, 588.153 612.333, 596.102 604.751 C 616.379 585.409, 632.077 562.492, 642.012 537.729 C 645.576 528.845, 646.935 524.676, 650.075 513 C 660.068 475.826, 658.323 430.080, 645.575 395.070 C 642.807 387.469, 633.928 369.807, 629.317 362.731 C 620.233 348.792, 607.175 334.751, 594.640 325.447 C 591.263 322.940, 587.600 320.144, 586.500 319.235 C 583.491 316.746, 572.181 310, 571.018 310 C 570.458 310, 570 309.550, 570 309 C 570 308.450, 569.563 308, 569.030 308 C 568.496 308, 565.683 306.921, 562.780 305.602 C 559.876 304.283, 555.813 302.506, 553.750 301.653 C 550.233 300.199, 550 299.833, 550 295.775 C 550 286.798, 547.117 268.336, 543.398 253.500 C 540.383 241.473, 534.691 226.207, 528.482 213.500 C 521.603 199.418, 518.843 194.922, 509.241 182.148 L 502.963 173.796 504.903 170.648 C 513.255 157.092, 516.133 136.660, 511.979 120.418 C 508.304 106.049, 500.690 100.396, 489 103.359 M 174.415 450.600 C 173.380 456.120, 174.619 480.324, 176.455 490.444 C 178.726 502.957, 180.991 507.680, 185.657 509.630 C 190.235 511.543, 196.009 510.817, 200.395 507.778 C 204.168 505.163, 213 496.219, 213 495.013 C 213 494.534, 213.565 493.548, 214.256 492.821 C 214.946 492.095, 216.571 489.250, 217.865 486.500 C 219.160 483.750, 220.609 480.736, 221.086 479.801 C 221.999 478.013, 219.840 476.064, 213.512 472.964 C 207.570 470.053, 189.555 458.827, 188 457.066 C 187.175 456.132, 177.593 448.427, 176.301 447.658 C 175.493 447.178, 174.877 448.140, 174.415 450.600 M 557.500 452.575 C 551.962 457.535, 535.175 468.733, 524.777 474.402 L 518.055 478.067 520.374 483.284 C 523.164 489.562, 526.670 495.023, 531.614 500.794 C 542.838 513.894, 557.603 513.577, 560.953 500.164 C 561.594 497.599, 562.504 493.925, 562.975 492 C 563.447 490.075, 564.379 481.525, 565.046 473 C 566.241 457.748, 565.686 449.003, 563.484 448.376 C 562.943 448.222, 560.250 450.111, 557.500 452.575 M 232.108 489.750 C 229.277 499.415, 228 507.352, 228 515.282 C 228 521.627, 228.240 522.422, 230.906 524.912 C 235.200 528.924, 240.787 530.326, 246.703 528.879 C 254.335 527.011, 258.764 524.299, 262.430 519.247 C 267.569 512.165, 272.148 496.831, 269.597 495.248 C 268.760 494.728, 235.281 483.136, 234.292 483.024 C 234.178 483.011, 233.195 486.038, 232.108 489.750 M 500.787 484.546 C 500.046 485.288, 475.308 493.594, 471.261 494.461 C 469.480 494.842, 467.806 495.505, 467.541 495.934 C 466.921 496.937, 470.248 508.592, 472.592 513.624 C 475.434 519.727, 478.183 523.015, 482.500 525.474 C 495.188 532.700, 508.048 529.732, 510.786 518.947 C 512.299 512.985, 509.876 495.753, 506.329 487.250 C 505.097 484.297, 502.368 482.966, 500.787 484.546 M 283.935 500.121 C 281.529 504.618, 277.709 523.958, 277.607 532.159 C 277.508 540.210, 277.676 540.973, 280 543.015 C 283.828 546.378, 287.468 547.618, 302 550.508 C 306.125 551.328, 311.413 552, 313.750 552 L 318 552 318 548.059 C 318 545.891, 317.619 543.883, 317.154 543.595 C 316.379 543.116, 315.909 538.298, 314.123 512.500 L 313.500 503.500 308.500 502.649 C 305.750 502.181, 299.311 501.023, 294.191 500.075 C 285.309 498.430, 284.839 498.432, 283.935 500.121 M 437.230 501.483 C 430.482 502.706, 424.788 503.885, 424.576 504.103 C 424.250 504.439, 420.979 547.054, 420.995 550.750 C 421.003 552.605, 428.144 552.315, 439.071 550.017 C 458.430 545.945, 461.740 542.643, 460.540 528.604 C 459.916 521.312, 457.750 511.221, 454.883 502.250 C 453.655 498.407, 454.101 498.427, 437.230 501.483" stroke="none" fill="#fefefe" fill-rule="evenodd"/><path d="M 316.333 260.097 C 310.051 261.916, 304.986 270.479, 305.022 279.218 C 305.067 290.031, 310.650 297, 319.266 297 C 323.812 297, 324.647 296.616, 328.516 292.747 C 338.759 282.504, 336.139 264.785, 323.685 260.067 C 320.495 258.858, 320.615 258.857, 316.333 260.097 M 426.393 259.978 C 422.803 261.429, 418.124 268.085, 416.924 273.449 C 414.207 285.591, 423.429 298.455, 433.497 296.567 C 442.931 294.797, 449.131 278.057, 444.044 268.086 C 440.095 260.346, 433.257 257.205, 426.393 259.978" stroke="none" fill="#020001" fill-rule="evenodd"/><path d="M 217.330 344.376 C 212.876 348.124, 211.435 352.171, 212.861 356.930 C 215.419 365.469, 227.790 373.963, 237.703 373.987 C 240.565 373.994, 244.010 373.497, 245.359 372.882 C 251.793 369.951, 252.798 359.038, 247.266 352.175 C 243.021 346.909, 234.261 342.675, 226.601 342.187 C 221.082 341.836, 220.062 342.077, 217.330 344.376 M 510.500 344.355 C 500.619 348.969, 496 354.925, 496 363.051 C 496 365.999, 496.759 367.663, 499.368 370.429 C 502.420 373.664, 503.242 374, 508.118 373.999 C 514.953 373.998, 523.961 369.841, 529.391 364.182 C 532.569 360.870, 533.368 359.227, 533.754 355.210 C 534.023 352.408, 533.720 349.345, 533.049 348.092 C 529.736 341.901, 519.417 340.190, 510.500 344.355 M 349.750 506.732 C 352.087 506.943, 355.913 506.943, 358.250 506.732 C 360.587 506.522, 358.675 506.349, 354 506.349 C 349.325 506.349, 347.413 506.522, 349.750 506.732 M 383.776 506.733 C 386.128 506.945, 389.728 506.942, 391.776 506.727 C 393.824 506.512, 391.900 506.339, 387.500 506.343 C 383.100 506.346, 381.424 506.522, 383.776 506.733 M 421.272 522 C 421.272 524.475, 421.467 525.487, 421.706 524.250 C 421.944 523.013, 421.944 520.987, 421.706 519.750 C 421.467 518.513, 421.272 519.525, 421.272 522 M 420.286 534.500 C 420.294 537.250, 420.488 538.256, 420.718 536.736 C 420.947 535.216, 420.941 532.966, 420.704 531.736 C 420.467 530.506, 420.279 531.750, 420.286 534.500 M 361.750 553.706 C 362.988 553.944, 365.012 553.944, 366.250 553.706 C 367.488 553.467, 366.475 553.272, 364 553.272 C 361.525 553.272, 360.512 553.467, 361.750 553.706" stroke="none" fill="#f44e90" fill-rule="evenodd"/><path d="M 316.381 506.597 C 316.715 508.194, 317.471 516.250, 318.062 524.500 C 318.653 532.750, 319.180 540.063, 319.235 540.750 C 319.289 541.438, 320.496 542.007, 321.917 542.015 C 323.952 542.027, 324.182 542.236, 323 543 C 321.862 543.736, 322.284 543.973, 324.750 543.985 C 326.538 543.993, 328 544.450, 328 545 C 328 545.550, 329.800 546, 332 546 C 334.200 546, 336 546.450, 336 547 C 336 547.550, 337.800 548, 340 548 C 342.200 548, 344 548.450, 344 549 C 344 549.571, 347 550, 351 550 C 355.147 550, 358 550.421, 358 551.032 C 358 551.696, 362.645 552.019, 371 551.937 C 378.150 551.867, 384 551.403, 384 550.905 C 384 550.407, 386.250 550, 389 550 C 391.750 550, 394 549.550, 394 549 C 394 548.450, 396.250 548, 399 548 C 401.750 548, 404 547.550, 404 547 C 404 546.450, 405.350 546, 407 546 C 408.650 546, 410 545.648, 410 545.218 C 410 544.788, 411.155 544.341, 412.566 544.224 C 416.831 543.871, 418 541.794, 418 534.571 C 418 530.857, 418.435 528, 419 528 C 419.612 528, 420 523.298, 420 515.893 C 420 505.259, 419.807 503.860, 418.417 504.394 C 417.546 504.728, 408.883 505.728, 399.167 506.617 C 376.321 508.707, 345.890 507.856, 321.137 504.436 L 315.774 503.695 316.381 506.597" stroke="none" fill="#e8004e" fill-rule="evenodd"/><path d="M 252.798 105.362 C 248.549 107.247, 245.356 110.768, 242.831 116.348 C 240.770 120.903, 240.502 123.005, 240.515 134.500 C 240.533 149.127, 241.818 154.870, 247.655 166.395 L 251.146 173.289 246.264 178.395 C 224.116 201.553, 206.650 240.664, 201.113 279.500 C 199.459 291.102, 198.951 296.617, 199.487 297.153 C 199.767 297.433, 202.809 297.072, 206.248 296.352 C 214.587 294.604, 231.837 294.684, 240.500 296.510 C 251.876 298.909, 261.920 303.517, 272.817 311.337 C 277.726 314.860, 276.330 315.260, 288.968 306.714 C 292.860 304.082, 299.183 300.667, 303.018 299.126 C 306.853 297.585, 309.734 296.068, 309.421 295.754 C 309.107 295.440, 308.740 294.431, 308.605 293.512 C 308.470 292.592, 307.790 291.488, 307.094 291.058 C 306.398 290.628, 305.876 289.987, 305.933 289.634 C 306.076 288.742, 304.837 283.698, 304.201 282.586 C 303.215 280.860, 303.233 276, 304.225 276 C 304.792 276, 304.939 274.894, 304.568 273.416 C 304.096 271.535, 304.249 271.036, 305.130 271.580 C 305.962 272.094, 306.140 271.808, 305.701 270.664 C 305.350 269.749, 305.499 269, 306.031 269 C 306.564 269, 306.888 268.622, 306.750 268.161 C 306.613 267.700, 307.964 266.084, 309.753 264.570 C 311.542 263.056, 312.705 261.332, 312.339 260.739 C 311.919 260.059, 312.277 259.892, 313.307 260.288 C 314.206 260.633, 315.598 260.259, 316.400 259.458 C 318.144 257.713, 324.478 257.417, 323.420 259.130 C 323.008 259.796, 323.252 260.083, 324.016 259.828 C 325.649 259.284, 330.146 263.425, 332.892 268 C 335.178 271.809, 335.780 280.818, 334.052 285.362 C 332.977 288.190, 331.601 288.128, 349.500 286.057 C 354.450 285.485, 366.600 285.027, 376.500 285.039 C 393.174 285.060, 400.201 285.585, 413.656 287.817 C 417.789 288.502, 418.710 288.408, 418.301 287.341 C 418.020 286.610, 417.483 286.202, 417.107 286.434 C 416.731 286.666, 416.320 284.301, 416.192 281.178 C 416.065 278.055, 415.697 274.656, 415.374 273.625 C 414.964 272.317, 415.153 271.977, 416 272.500 C 416.882 273.045, 417.019 272.635, 416.500 271 C 416.052 269.587, 416.159 268.980, 416.788 269.369 C 417.909 270.062, 419.297 267.290, 418.487 265.979 C 418.201 265.516, 418.494 264.813, 419.138 264.415 C 419.919 263.932, 420.039 264.127, 419.500 265 C 418.965 265.866, 419.082 266.068, 419.845 265.595 C 420.480 265.203, 421 264.289, 421 263.563 C 421 262.838, 421.788 261.627, 422.750 260.872 C 424.370 259.602, 424.389 259.645, 423 261.453 C 421.512 263.391, 421.521 263.391, 424.147 261.453 C 425.603 260.379, 426.645 259.254, 426.464 258.953 C 426.282 258.653, 428.466 258.420, 431.317 258.436 C 436.060 258.462, 436.851 258.820, 440.630 262.647 C 448.015 270.126, 448.646 280.533, 442.297 290.127 C 440.845 292.321, 438.497 294.793, 437.079 295.621 C 435.661 296.450, 435.288 296.888, 436.250 296.595 C 437.212 296.302, 438 296.408, 438 296.830 C 438 297.253, 439.564 298.164, 441.476 298.855 C 445.290 300.234, 462.357 311.150, 463.441 312.904 C 464.620 314.812, 466.943 314.113, 472.926 310.050 C 480.397 304.977, 488.813 300.748, 497 297.952 C 509.085 293.827, 530.974 294.126, 546.905 298.634 L 549.311 299.315 548.616 290.115 C 547.151 270.708, 540.895 244.363, 533.449 226.247 C 527.851 212.624, 517.137 193.359, 510.790 185.500 C 510.345 184.950, 508.189 182.189, 505.997 179.365 L 502.013 174.229 504.526 169.733 C 511.426 157.388, 514.660 138.096, 512.108 124.500 C 510.576 116.337, 506.479 108.276, 502.635 105.862 C 497.671 102.745, 488.161 103.618, 479.400 107.997 C 469.766 112.812, 459.369 123.261, 455.020 132.500 C 453.208 136.350, 451.572 139.678, 451.383 139.896 C 451.195 140.114, 448.445 139.147, 445.271 137.748 C 436.019 133.670, 422.413 129.391, 409.500 126.499 C 395.066 123.266, 372.107 122.124, 356.354 123.854 C 344.254 125.184, 322.393 130.656, 312.112 134.929 C 308.049 136.618, 304.224 137.998, 303.612 137.996 C 303.001 137.994, 301.045 135.178, 299.266 131.738 C 289.956 113.731, 265.377 99.779, 252.798 105.362 M 364 286.593 C 361.525 286.800, 354.550 287.482, 348.500 288.109 C 342.450 288.736, 336.371 289.343, 334.990 289.458 C 333.582 289.575, 330.730 291.433, 328.490 293.692 C 326.296 295.905, 323.938 297.518, 323.250 297.275 C 322.563 297.032, 322 297.225, 322 297.704 C 322 298.183, 320.650 298.677, 319 298.803 C 317.350 298.929, 316 298.544, 316 297.948 C 316 297.299, 315.149 297.135, 313.875 297.540 C 312.517 297.971, 311.981 297.839, 312.391 297.176 C 312.744 296.605, 312.463 295.810, 311.766 295.409 C 311.070 295.008, 310.838 295.052, 311.250 295.507 C 311.663 295.962, 307.115 298.706, 301.144 301.605 C 295.173 304.504, 287.457 309.148, 283.996 311.924 L 277.705 316.973 273.103 313.498 C 262.002 305.115, 249.765 299.827, 235.889 297.417 C 219.786 294.621, 199.258 297.736, 180.124 305.879 C 141.073 322.499, 106.773 363.026, 94.117 407.500 C 88.425 427.506, 86.558 444.543, 87.325 469.500 C 88.308 501.460, 93.155 522.012, 106.032 548.814 C 111.833 560.887, 123.908 580.072, 130.067 587 C 142.606 601.103, 152.938 610.886, 164.500 619.600 C 217.684 659.683, 294.712 676.114, 405.315 670.968 C 493.250 666.876, 552.091 646.064, 595.871 603.567 C 630.797 569.665, 649.845 529.790, 654.999 479.789 C 658.557 445.275, 652.558 410.832, 637.534 379.500 C 625.085 353.539, 607.430 333.968, 580.806 316.614 C 563.875 305.578, 547.413 299.215, 529.912 296.942 C 509.522 294.294, 489.388 299.871, 471.279 313.183 L 466.057 317.021 458.779 311.396 C 448.691 303.601, 437.295 298, 431.522 298 C 429.006 298, 427 297.530, 427 296.941 C 427 296.359, 426.550 296.160, 426 296.500 C 425.450 296.840, 425 296.615, 425 296 C 425 295.385, 424.610 295.123, 424.134 295.417 C 423.146 296.028, 419.235 292.079, 420 291.245 C 420.275 290.945, 419.600 290.570, 418.500 290.411 C 417.400 290.252, 411.775 289.440, 406 288.605 C 395.186 287.042, 371.955 285.929, 364 286.593 M 217.330 344.376 C 212.876 348.124, 211.435 352.171, 212.861 356.930 C 215.419 365.469, 227.790 373.963, 237.703 373.987 C 240.565 373.994, 244.010 373.497, 245.359 372.882 C 251.793 369.951, 252.798 359.038, 247.266 352.175 C 243.021 346.909, 234.261 342.675, 226.601 342.187 C 221.082 341.836, 220.062 342.077, 217.330 344.376 M 510.500 344.355 C 500.619 348.969, 496 354.925, 496 363.051 C 496 365.999, 496.759 367.663, 499.368 370.429 C 502.420 373.664, 503.242 374, 508.118 373.999 C 514.953 373.998, 523.961 369.841, 529.391 364.182 C 532.569 360.870, 533.368 359.227, 533.754 355.210 C 534.023 352.408, 533.720 349.345, 533.049 348.092 C 529.736 341.901, 519.417 340.190, 510.500 344.355 M 173.890 448.690 C 172.459 452.324, 173.408 478.364, 175.400 490.114 C 177.803 504.296, 181.287 510.400, 187.660 511.596 C 198.726 513.672, 209.033 505.415, 219.417 486.155 C 222.542 480.358, 223.456 477.803, 222.640 477.148 C 222.013 476.645, 218.575 474.773, 215 472.987 C 206.798 468.890, 190.714 458.333, 183.229 452.134 C 175.178 445.466, 175.161 445.460, 173.890 448.690 M 557.610 451.563 C 551.959 456.781, 536.645 467.096, 526.500 472.519 C 516.473 477.878, 516.635 477.619, 519.484 483.769 C 524.990 495.652, 533.745 505.927, 541.500 509.608 C 547.323 512.371, 549.762 512.544, 554.572 510.535 C 562.110 507.385, 566.264 489.660, 565.776 462.734 C 565.454 444.977, 565.168 444.586, 557.610 451.563 M 233.145 483.363 C 231.308 485.653, 227.752 502.752, 227.248 511.720 C 226.666 522.099, 227.575 524.551, 233.304 528.044 C 237.556 530.636, 247.916 530.680, 253.500 528.129 C 258.232 525.968, 263.469 520.877, 265.976 516 C 268.326 511.429, 272.210 498.316, 271.811 496.298 C 271.377 494.098, 234.445 481.743, 233.145 483.363 M 499.440 484.411 C 495.701 486.039, 479.616 491.339, 471.690 493.553 C 465.918 495.166, 465.884 495.198, 466.552 498.338 C 466.921 500.077, 468.126 504.200, 469.228 507.500 C 474.303 522.688, 483.068 530.071, 496.099 530.133 C 502.894 530.166, 507.307 528.140, 510.110 523.701 C 511.890 520.883, 512.075 519.305, 511.661 510.500 C 511.402 505, 510.464 497.800, 509.576 494.500 C 506.317 482.386, 505.639 481.711, 499.440 484.411 M 282.106 501.750 C 281.572 503.813, 280.668 507.300, 280.097 509.500 C 278.060 517.355, 276 529.571, 276 533.800 C 276 540.233, 278.304 543.769, 284.315 546.559 C 292.672 550.439, 317.333 554.888, 318.652 552.754 C 318.957 552.261, 318.912 549.900, 318.553 547.506 L 317.901 543.154 323.062 545.116 C 325.901 546.194, 332.561 548.151, 337.862 549.464 C 363.937 555.921, 385.871 555.300, 411.692 547.373 C 419.028 545.121, 419.924 544.579, 420.272 542.179 C 420.486 540.706, 420.447 542.787, 420.187 546.803 L 419.714 554.107 425.107 553.450 C 441.118 551.501, 454.005 547.861, 458.217 544.098 C 463.575 539.310, 463.311 528.754, 457.300 507.500 C 455.901 502.550, 454.609 498.336, 454.431 498.137 C 454.252 497.937, 449.245 498.692, 443.303 499.815 C 437.361 500.938, 430.380 502.139, 427.790 502.484 L 423.079 503.111 422.743 511.305 L 422.407 519.500 422.204 511.250 C 422.092 506.712, 421.798 503, 421.551 503 C 421.304 503, 415.792 503.723, 409.301 504.607 C 388.445 507.448, 337.862 506.512, 318.382 502.926 C 316.284 502.539, 315.116 503.116, 314.689 504.750 C 314.345 506.067, 314.203 505.943, 314.116 504.250 C 314.019 502.372, 313.427 502, 310.535 502 C 308.630 502, 302.442 501.101, 296.785 500.003 C 283.066 497.339, 283.254 497.317, 282.106 501.750 M 315.286 512.500 C 315.294 515.250, 315.488 516.256, 315.718 514.736 C 315.947 513.216, 315.941 510.966, 315.704 509.736 C 315.467 508.506, 315.279 509.750, 315.286 512.500 M 316.088 527.583 C 316.136 530.288, 316.547 534.750, 317.001 537.500 C 317.590 541.066, 317.672 539.775, 317.287 533 C 316.711 522.874, 315.942 519.399, 316.088 527.583 M 421.310 531.500 C 421.315 534.800, 421.502 536.029, 421.725 534.232 C 421.947 532.435, 421.943 529.735, 421.715 528.232 C 421.486 526.729, 421.304 528.200, 421.310 531.500" stroke="none" fill="#f1afca" fill-rule="evenodd"/><path d="M 420 516 C 420 523.333, 419.611 528, 419 528 C 418.435 528, 418 530.857, 418 534.571 C 418 541.794, 416.831 543.871, 412.566 544.224 C 411.155 544.341, 410 544.788, 410 545.218 C 410 545.648, 408.650 546, 407 546 C 405.350 546, 404 546.450, 404 547 C 404 547.550, 401.750 548, 399 548 C 396.250 548, 394 548.450, 394 549 C 394 549.550, 391.750 550, 389 550 C 386.250 550, 384 550.407, 384 550.905 C 384 551.403, 378.150 551.867, 371 551.937 C 362.645 552.019, 358 551.696, 358 551.032 C 358 550.421, 355.147 550, 351 550 C 347 550, 344 549.571, 344 549 C 344 548.450, 342.200 548, 340 548 C 337.800 548, 336 547.550, 336 547 C 336 546.450, 334.313 546.041, 332.250 546.091 C 328.563 546.181, 328.595 546.212, 334.152 547.959 C 341.980 550.421, 352.619 552.333, 355.009 551.708 C 356.106 551.421, 356.791 551.529, 356.533 551.947 C 355.921 552.937, 371.234 554.012, 377.023 553.386 C 390.408 551.939, 397.939 550.711, 397.526 550.042 C 397.270 549.628, 398.059 549.466, 399.280 549.682 C 400.501 549.899, 405.550 548.805, 410.500 547.251 L 419.500 544.426 420.682 529.463 C 422.179 510.517, 422.260 504, 421 504 C 420.389 504, 420 508.667, 420 516 M 316.286 511.500 C 316.294 514.250, 316.488 515.256, 316.718 513.736 C 316.947 512.216, 316.941 509.966, 316.704 508.736 C 316.467 507.506, 316.279 508.750, 316.286 511.500 M 361.302 507.746 C 366.693 507.926, 375.243 507.925, 380.302 507.744 C 385.361 507.563, 380.950 507.416, 370.500 507.417 C 360.050 507.418, 355.911 507.566, 361.302 507.746 M 317.300 522 C 317.300 525.025, 317.487 526.263, 317.716 524.750 C 317.945 523.237, 317.945 520.763, 317.716 519.250 C 317.487 517.737, 317.300 518.975, 317.300 522 M 318 537.711 C 318 542.462, 319.953 544.706, 322.698 543.109 C 324.297 542.179, 324.213 542.057, 321.954 542.030 C 319.735 542.004, 319.377 541.524, 319.159 538.288 C 318.814 533.172, 318 532.767, 318 537.711" stroke="none" fill="#e61d60" fill-rule="evenodd"/><path d="M 491 103 C 489.039 103.628, 489.643 103.822, 493.800 103.900 C 502.532 104.065, 506.526 107.346, 510.530 117.643 C 511.733 120.737, 511.913 120.906, 511.438 118.500 C 509.898 110.700, 504.997 104.865, 498.500 103.099 C 494.057 101.891, 494.448 101.896, 491 103 M 251.587 104.592 C 246.805 107.288, 241.944 113.217, 242.040 116.236 C 242.062 116.931, 242.792 116.150, 243.662 114.500 C 247.676 106.886, 253.560 103.532, 261.500 104.332 C 264.250 104.609, 267.400 105.131, 268.500 105.493 C 270.413 106.122, 270.418 106.099, 268.613 104.949 C 265.441 102.929, 254.928 102.708, 251.587 104.592 M 480 106.312 C 477.525 107.515, 475.350 108.838, 475.167 109.250 C 474.983 109.662, 474.233 110, 473.500 110 C 472.767 110, 472.017 110.338, 471.833 110.750 C 471.650 111.162, 469.856 112.727, 467.847 114.227 C 463.110 117.763, 454.600 129.152, 452.943 134.174 C 451.303 139.142, 450.755 139.442, 446.936 137.467 C 445.219 136.579, 443.626 136.040, 443.397 136.270 C 443.167 136.499, 444.789 137.503, 447 138.500 C 449.211 139.497, 451.179 140.130, 451.373 139.906 C 451.567 139.683, 453.159 136.464, 454.912 132.754 C 460.348 121.245, 472.728 109.926, 484.673 105.545 C 486.866 104.740, 487.646 104.137, 486.500 104.132 C 485.400 104.128, 482.475 105.109, 480 106.312 M 276.550 108.840 C 278.702 110.744, 287.084 115.945, 286.514 115.023 C 285.739 113.769, 277.407 108, 276.370 108 C 275.946 108, 276.028 108.378, 276.550 108.840 M 354.500 122.957 C 352.850 123.353, 358.700 123.466, 367.500 123.208 C 381.352 122.803, 394.612 123.599, 406.500 125.550 C 409.058 125.970, 409.181 125.902, 407.338 125.086 C 401.581 122.539, 362.760 120.974, 354.500 122.957 M 512.500 135.866 C 512.500 143.704, 512.793 149.079, 513.150 147.809 C 513.978 144.871, 513.965 128.438, 513.132 124.557 C 512.784 122.938, 512.500 128.027, 512.500 135.866 M 332.500 127.126 C 319.738 130.490, 318.549 130.882, 319.187 131.520 C 319.447 131.780, 322.099 131.269, 325.080 130.383 C 328.061 129.497, 335 127.730, 340.500 126.456 C 346.210 125.133, 348.999 124.158, 347 124.183 C 345.075 124.207, 338.550 125.531, 332.500 127.126 M 239.355 134.500 C 239.352 139.450, 239.521 141.601, 239.731 139.280 C 239.940 136.959, 239.943 132.909, 239.736 130.280 C 239.530 127.651, 239.358 129.550, 239.355 134.500 M 416.500 128.067 C 420.350 129.105, 423.950 129.924, 424.500 129.886 C 426.352 129.759, 413.521 126.026, 411.500 126.104 C 410.400 126.146, 412.650 127.030, 416.500 128.067 M 300.212 133.500 C 302.632 138.480, 303.587 138.737, 309.500 136 C 314.296 133.780, 312.764 133.365, 307.654 135.500 C 305.680 136.325, 303.834 137, 303.552 137 C 303.271 137, 302.122 135.200, 301 133 C 298.193 127.497, 297.507 127.932, 300.212 133.500 M 434.500 133.458 C 439.526 135.627, 442.769 136.125, 438.500 134.072 C 436.300 133.014, 433.825 132.152, 433 132.156 C 432.175 132.160, 432.850 132.746, 434.500 133.458 M 240.015 147.083 C 240.024 148.963, 240.480 151.175, 241.030 152 C 241.728 153.048, 241.832 152.145, 241.375 149 C 240.562 143.399, 239.995 142.600, 240.015 147.083 M 509.749 157.105 C 508.819 160.013, 508.205 162.539, 508.385 162.718 C 508.958 163.292, 512.181 154.043, 511.803 152.909 C 511.603 152.309, 510.679 154.198, 509.749 157.105 M 245.405 177.450 C 242.608 180.361, 239.257 184.263, 237.958 186.121 C 236.659 187.980, 235.284 189.725, 234.903 190 C 232.082 192.034, 212 229.594, 212 232.835 C 212 233.491, 211.571 234.809, 211.046 235.764 C 209.549 238.488, 205.652 251.986, 206.204 252.537 C 206.476 252.809, 207.734 249.538, 209 245.266 C 216.230 220.859, 231.059 194.285, 246.382 178.275 C 249.132 175.401, 251.182 172.849, 250.936 172.603 C 250.691 172.358, 248.202 174.539, 245.405 177.450 M 502.489 173.018 C 502.142 173.579, 503.660 176.299, 505.861 179.063 C 508.062 181.828, 510.057 184.632, 510.295 185.295 C 510.532 185.958, 510.975 186.275, 511.278 186 C 511.582 185.725, 509.842 182.871, 507.412 179.659 C 504.983 176.446, 503.248 173.408, 503.556 172.909 C 503.865 172.409, 503.893 172, 503.618 172 C 503.343 172, 502.835 172.458, 502.489 173.018 M 515.722 192.609 C 517.916 195.849, 520.484 200.004, 521.429 201.843 C 522.374 203.682, 523.375 204.958, 523.654 204.680 C 523.932 204.401, 523.370 202.897, 522.406 201.337 C 517.228 192.963, 513.831 188.014, 512.843 187.403 C 512.233 187.026, 513.528 189.368, 515.722 192.609 M 528.889 216.250 C 531.501 221.887, 534.172 227.625, 534.825 229 L 536.011 231.500 535.383 229 C 534.595 225.864, 525.316 206, 524.639 206 C 524.364 206, 526.276 210.613, 528.889 216.250 M 536.653 234 C 537.001 235.375, 537.903 238.075, 538.658 240 C 539.832 242.995, 539.948 243.083, 539.461 240.610 C 539.148 239.021, 538.246 236.321, 537.456 234.610 C 536.376 232.271, 536.177 232.120, 536.653 234 M 540.004 244.083 C 540.018 245.769, 545.915 267.061, 545.934 265.500 C 545.965 263.122, 541.425 245.091, 540.584 244.251 C 540.263 243.929, 540.002 243.854, 540.004 244.083 M 204.452 256.632 C 204.096 258.209, 203.402 261.075, 202.909 263 C 202.415 264.925, 202.055 267.400, 202.108 268.500 C 202.162 269.600, 203.065 266.943, 204.116 262.596 C 205.166 258.249, 205.817 254.483, 205.561 254.228 C 205.306 253.973, 204.807 255.055, 204.452 256.632 M 546.318 271 C 547.597 278.808, 549.361 297.973, 548.848 298.486 C 548.546 298.788, 545.419 298.240, 541.899 297.268 C 537.052 295.929, 531.740 295.500, 520 295.500 C 506.439 295.500, 503.624 295.791, 497.500 297.829 C 488.963 300.670, 480.653 304.803, 472.926 310.050 C 466.943 314.113, 464.620 314.812, 463.441 312.904 C 462.443 311.289, 445.970 300.639, 441.954 299.013 C 440.054 298.243, 438.275 297.363, 438 297.057 C 437.725 296.751, 435.025 296.764, 432 297.087 L 426.500 297.674 431.272 297.837 C 437.355 298.045, 448.804 303.689, 458.779 311.396 L 466.057 317.021 471.279 313.183 C 489.393 299.866, 509.535 294.289, 529.912 296.948 C 535.185 297.635, 543.068 299.324, 547.429 300.699 C 558.551 304.207, 559.036 304.305, 554.250 302.068 C 550.123 300.140, 549.999 299.943, 549.980 295.291 C 549.956 289.241, 547.284 268.936, 546.404 268.115 C 546.042 267.777, 546.003 269.075, 546.318 271 M 200.723 274 C 200.340 275.375, 200.070 278.075, 200.123 280 C 200.215 283.365, 200.254 283.327, 201.117 279 C 202.127 273.944, 201.820 270.058, 200.723 274 M 198.642 287.750 C 198.301 289.813, 198.017 293.188, 198.011 295.250 C 198.003 297.872, 197.559 299, 196.535 299 C 192.428 299, 164 311.369, 164 313.156 C 164 313.620, 163.100 314, 162 314 C 160.900 314, 160 314.353, 160 314.784 C 160 315.216, 158.666 316.357, 157.036 317.319 C 155.406 318.282, 153.494 319.623, 152.786 320.299 C 152.079 320.976, 149.475 323.087, 147 324.992 C 140.716 329.828, 127.304 343.443, 122.360 350.005 C 117.644 356.264, 106 373.642, 106 374.420 C 106 374.704, 104.311 378.438, 102.246 382.718 C 98.068 391.381, 95.593 397.926, 96.248 398.581 C 96.485 398.818, 97.949 395.747, 99.502 391.756 C 108.787 367.885, 127.961 341.800, 148.283 325.392 C 168.903 308.744, 190.981 299.326, 215 296.933 C 224.780 295.958, 227.904 296.031, 235.889 297.417 C 249.765 299.827, 262.002 305.115, 273.103 313.498 L 277.705 316.973 283.965 311.949 C 291.737 305.712, 309.860 296.644, 312.587 297.628 C 313.639 298.008, 314.275 298.134, 314 297.909 C 313.725 297.684, 312.196 296.375, 310.602 295 C 308.269 292.987, 307.908 292.880, 308.754 294.450 C 309.701 296.210, 309.133 296.669, 302.924 299.164 C 299.141 300.684, 292.860 304.082, 288.968 306.714 C 276.330 315.260, 277.726 314.860, 272.817 311.337 C 261.920 303.517, 251.876 298.909, 240.500 296.510 C 231.837 294.684, 214.587 294.604, 206.248 296.352 C 202.809 297.072, 199.793 297.460, 199.546 297.213 C 199.299 296.966, 199.365 293.892, 199.693 290.382 C 200.341 283.447, 199.642 281.698, 198.642 287.750 M 348.500 286.056 C 344.650 286.556, 339.718 287.145, 337.540 287.364 C 335.361 287.583, 333.396 288.313, 333.171 288.987 C 332.885 289.844, 333.624 290.040, 335.632 289.643 C 352.652 286.271, 386.755 285.682, 405.500 288.437 C 416.364 290.033, 417.827 290.499, 420.950 293.350 L 424.399 296.500 421.015 292.500 C 418.070 289.019, 416.780 288.334, 411.065 287.220 C 402.933 285.635, 358.145 284.801, 348.500 286.056 M 571.083 310.342 C 573.641 312.445, 586 319.767, 586 319.181 C 586 318.404, 572.562 310, 571.320 310 C 570.961 310, 570.854 310.154, 571.083 310.342 M 591 323.180 C 593.682 325.989, 606 336.068, 606 335.454 C 606 334.542, 597.679 327.411, 591.500 323.028 C 589.691 321.745, 589.643 321.760, 591 323.180 M 609.680 339.167 C 610.131 340.084, 612.534 343.009, 615.020 345.667 C 617.507 348.325, 621.074 352.525, 622.948 355 C 626.949 360.283, 628.670 362.187, 627.470 360 C 624.871 355.264, 607.716 335.175, 609.680 339.167 M 636.705 377.472 C 638.182 380.482, 639.557 382.776, 639.762 382.571 C 640.211 382.122, 635.167 372, 634.494 372 C 634.234 372, 635.229 374.462, 636.705 377.472 M 641.592 387.750 C 642.482 389.813, 644.704 395.775, 646.530 401 C 648.355 406.225, 649.882 409.973, 649.924 409.328 C 650.085 406.848, 641.559 384, 640.473 384 C 640.198 384, 640.702 385.688, 641.592 387.750 M 93.997 403.656 C 88.097 423.393, 86.053 438.639, 86.106 462.500 C 86.129 472.950, 86.489 483.525, 86.905 486 C 87.321 488.475, 87.454 481.500, 87.199 470.500 C 86.593 444.286, 88.526 426.772, 94.134 407.654 C 95.238 403.889, 95.918 400.584, 95.644 400.310 C 95.370 400.037, 94.629 401.542, 93.997 403.656 M 650.170 412.500 C 650.186 413.600, 650.560 415.625, 651 417 L 651.801 419.500 651.830 417 C 651.846 415.625, 651.473 413.600, 651 412.500 L 650.141 410.500 650.170 412.500 M 652.218 421.500 C 652.228 422.600, 652.580 424.850, 653 426.500 C 653.686 429.195, 653.765 429.246, 653.782 427 C 653.792 425.625, 653.440 423.375, 653 422 C 652.373 420.041, 652.203 419.933, 652.218 421.500 M 654.718 439.500 C 655.021 443.900, 655.434 447.688, 655.635 447.917 C 656.333 448.713, 655.880 439.476, 655.025 435.500 C 654.408 432.627, 654.322 433.755, 654.718 439.500 M 173.991 448.525 C 173.446 449.958, 173.082 456.388, 173.181 462.815 L 173.363 474.500 173.931 461.331 C 174.244 454.088, 174.790 447.872, 175.145 447.519 C 175.500 447.166, 177.525 448.344, 179.645 450.137 C 185.508 455.096, 187.080 455.959, 182.544 451.728 C 176.255 445.863, 175.159 445.452, 173.991 448.525 M 558.975 450.720 L 555.500 454.500 559.252 451.052 C 563.212 447.412, 564.460 447.607, 565.320 452 C 565.645 453.661, 565.757 453.328, 565.655 451.008 C 565.442 446.202, 563.217 446.106, 558.975 450.720 M 656.320 461 C 656.320 464.575, 656.502 466.038, 656.723 464.250 C 656.945 462.462, 656.945 459.538, 656.723 457.750 C 656.502 455.962, 656.320 457.425, 656.320 461 M 188.013 456.776 C 188.020 457.174, 191.283 459.579, 195.263 462.121 C 208.283 470.433, 208.828 470.170, 196.250 461.645 C 191.713 458.569, 188.006 456.378, 188.013 456.776 M 533.741 468.374 C 528.937 471.327, 527.596 472.722, 531.500 470.703 C 534.635 469.083, 538.863 466.064, 538 466.063 C 537.725 466.063, 535.808 467.103, 533.741 468.374 M 564.624 477.831 C 564.187 483.513, 564.049 488.382, 564.318 488.652 C 564.992 489.325, 566.292 473.047, 565.810 469.977 C 565.596 468.615, 565.062 472.149, 564.624 477.831 M 219.220 476.006 C 221.245 477.582, 221.720 478.554, 221.079 479.812 C 220.606 480.740, 219.160 483.750, 217.865 486.500 C 216.571 489.250, 214.946 492.095, 214.256 492.821 C 213.565 493.548, 213 494.534, 213 495.013 C 213 496.219, 204.168 505.163, 200.395 507.778 C 193.505 512.553, 183.720 511.226, 180.545 505.087 C 179.672 503.399, 178.330 499.426, 177.562 496.259 C 176.674 492.594, 176.136 491.496, 176.083 493.239 C 175.970 496.960, 179.418 505.751, 182.117 508.625 C 186.497 513.287, 194.685 512.969, 202.434 507.836 C 208.045 504.120, 213.455 497.212, 219.417 486.155 C 224.004 477.647, 223.996 477.451, 219 475.077 C 216.596 473.935, 216.604 473.971, 219.220 476.006 M 520.234 475.999 L 516.969 477.990 518.537 481.745 C 520.378 486.154, 524.155 492.668, 526.514 495.500 C 527.438 496.610, 527.249 495.942, 526.089 494 C 524.940 492.075, 522.679 487.800, 521.065 484.500 C 517.967 478.164, 517.930 478.379, 522.663 475.309 C 525.765 473.297, 523.706 473.882, 520.234 475.999 M 654.636 482.356 C 654.219 487.227, 654.089 491.423, 654.347 491.680 C 654.997 492.331, 656.299 477.745, 655.800 475.404 C 655.576 474.357, 655.052 477.485, 654.636 482.356 M 174.058 479.083 C 174.089 480.962, 174.511 484.300, 174.996 486.500 C 175.672 489.574, 175.746 488.880, 175.315 483.500 C 174.718 476.050, 173.962 473.394, 174.058 479.083 M 233.278 483.250 C 232.104 484.766, 229.556 493.889, 230.142 494.475 C 230.372 494.705, 231.468 491.992, 232.579 488.447 C 233.690 484.901, 234.519 482, 234.422 482 C 234.324 482, 233.810 482.563, 233.278 483.250 M 503.622 483.984 C 504.788 484.455, 506.048 486.055, 506.420 487.538 C 506.793 489.022, 507.361 489.972, 507.683 489.650 C 508.006 489.328, 507.704 487.700, 507.013 486.032 C 506.153 483.955, 505.087 483.020, 503.629 483.063 L 501.500 483.127 503.622 483.984 M 562.587 493.500 C 562.179 495.700, 561.428 498.810, 560.918 500.412 C 560.408 502.014, 560.191 503.525, 560.436 503.770 C 561.176 504.509, 564.176 493.123, 563.737 491.245 C 563.509 490.272, 563.001 491.269, 562.587 493.500 M 88.215 494 C 88.206 495.925, 88.560 498.625, 89 500 C 89.648 502.022, 89.809 502.118, 89.843 500.500 C 89.866 499.400, 89.512 496.700, 89.057 494.500 L 88.230 490.500 88.215 494 M 652.500 497 C 652.116 499.274, 652.026 501.360, 652.301 501.635 C 652.576 501.910, 653.116 500.274, 653.500 498 C 653.884 495.726, 653.974 493.640, 653.699 493.365 C 653.424 493.090, 652.884 494.726, 652.500 497 M 269.646 495.236 C 270.066 495.915, 270.340 498.053, 270.256 499.986 L 270.103 503.500 271.180 500.306 C 272.326 496.907, 271.770 494, 269.972 494 C 269.361 494, 269.218 494.543, 269.646 495.236 M 467.180 494.867 C 466.094 495.556, 466.126 496.720, 467.361 501.449 C 468.186 504.609, 469.117 507.450, 469.430 507.764 C 470.275 508.609, 470.121 506.457, 469.146 503.815 C 466.854 497.599, 466.869 495.987, 469.225 495.040 C 470.479 494.537, 470.826 494.105, 470 494.079 C 469.175 494.052, 467.906 494.407, 467.180 494.867 M 228.112 502.277 C 227.500 505.790, 227 511.630, 227 515.255 C 227 520.813, 227.389 522.309, 229.480 524.794 C 232.146 527.962, 237.086 530.482, 239.199 529.750 C 239.915 529.503, 239.050 528.974, 237.277 528.577 C 235.504 528.179, 232.692 526.581, 231.027 525.025 C 228.222 522.405, 228 521.690, 228 515.282 C 228 511.479, 228.481 505.766, 229.069 502.586 C 229.657 499.406, 229.932 496.599, 229.681 496.348 C 229.430 496.096, 228.724 498.765, 228.112 502.277 M 282.099 501.750 C 278.914 513.963, 278.007 517.986, 278.065 519.644 C 278.101 520.665, 279.222 517.090, 280.557 511.700 C 281.891 506.310, 283.453 501.022, 284.027 499.950 C 284.703 498.686, 284.720 498, 284.074 498 C 283.526 498, 282.637 499.688, 282.099 501.750 M 451.748 498.706 C 453.111 498.968, 454.241 500.114, 454.618 501.616 C 454.960 502.978, 455.433 503.900, 455.669 503.665 C 455.904 503.429, 455.802 502.058, 455.440 500.618 C 454.926 498.568, 454.211 498.030, 452.142 498.136 C 449.788 498.258, 449.745 498.320, 451.748 498.706 M 532.042 502.617 C 536.668 507.408, 544.821 511.973, 548.782 511.990 C 552.464 512.006, 557.743 509.355, 559.049 506.835 C 560.140 504.730, 559.958 504.782, 557.205 507.364 C 551.148 513.046, 539.993 510.450, 532.168 501.538 C 530.459 499.592, 528.729 498, 528.322 498 C 527.916 498, 529.590 500.078, 532.042 502.617 M 510.729 505.500 C 511.028 509.350, 511.437 512.688, 511.637 512.917 C 512.305 513.683, 511.774 504.539, 510.974 501.500 C 510.495 499.680, 510.398 501.254, 510.729 505.500 M 423.180 508.750 L 423.360 514.500 423.744 509.519 C 423.956 506.780, 424.662 504.199, 425.314 503.785 C 426.107 503.280, 425.920 503.026, 424.750 503.015 C 423.264 503.002, 423.027 503.867, 423.180 508.750 M 267.551 509.194 C 265.454 515.853, 260.032 523.413, 255.764 525.629 C 253.969 526.561, 250.475 527.885, 248 528.572 C 244.086 529.659, 243.891 529.830, 246.500 529.889 C 253.057 530.036, 262.109 523.573, 265.953 516 C 268.243 511.488, 270.339 505.005, 269.710 504.377 C 269.441 504.108, 268.470 506.276, 267.551 509.194 M 650.500 507 C 650.120 508.729, 650.035 510.368, 650.310 510.643 C 650.585 510.918, 651.120 509.729, 651.500 508 C 651.880 506.271, 651.965 504.632, 651.690 504.357 C 651.415 504.082, 650.880 505.271, 650.500 507 M 314.251 512 C 314.222 515.575, 314.540 520.975, 314.958 524 L 315.718 529.500 315.742 524 C 315.755 520.975, 315.437 515.575, 315.036 512 L 314.305 505.500 314.251 512 M 470.040 509.282 C 469.968 510.695, 473.015 517.318, 473.509 516.824 C 473.775 516.558, 473.112 514.577, 472.036 512.421 C 470.960 510.264, 470.062 508.852, 470.040 509.282 M 458.141 513.500 C 458.141 514.600, 458.527 516.400, 459 517.500 L 459.859 519.500 459.859 517.500 C 459.859 516.400, 459.473 514.600, 459 513.500 L 458.141 511.500 458.141 513.500 M 510.686 519.175 C 509.769 523.676, 506.374 527.117, 501.314 528.673 C 498.256 529.614, 497.995 529.861, 500 529.919 C 505.613 530.084, 512.589 522.835, 511.778 517.682 C 511.524 516.071, 511.238 516.462, 510.686 519.175 M 422.286 523.500 C 422.294 526.250, 422.488 527.256, 422.718 525.736 C 422.947 524.216, 422.941 521.966, 422.704 520.736 C 422.467 519.506, 422.279 520.750, 422.286 523.500 M 645.733 524.733 C 644.855 527.888, 644.304 530.638, 644.509 530.842 C 644.714 531.047, 645.625 528.658, 646.533 525.533 C 647.442 522.408, 647.993 519.659, 647.758 519.424 C 647.522 519.189, 646.612 521.578, 645.733 524.733 M 460.652 528.122 C 461.381 539.275, 459.910 542.779, 453.208 545.866 C 447.647 548.426, 431.436 552, 425.381 552 C 421.194 552, 421.114 551.935, 420.728 548.250 C 420.372 544.840, 420.321 544.934, 420.168 549.284 L 420 554.069 425.250 553.431 C 441.146 551.501, 454.020 547.847, 458.252 544.066 C 461.131 541.494, 461.454 540.606, 461.779 534.367 C 461.975 530.590, 461.676 525.700, 461.113 523.500 C 460.276 520.229, 460.192 521.071, 460.652 528.122 M 276.642 525.750 C 275.801 530.836, 275.867 538.247, 276.765 539.637 C 277.169 540.263, 277.555 536.550, 277.622 531.387 C 277.690 526.224, 277.636 522, 277.503 522 C 277.370 522, 276.983 523.688, 276.642 525.750 M 480.500 525 C 481.597 526.775, 489.106 529.967, 492 529.889 C 493.643 529.844, 492.861 529.370, 489.722 528.507 C 487.093 527.784, 483.775 526.428, 482.348 525.493 C 480.921 524.558, 480.090 524.336, 480.500 525 M 96.037 526.727 C 95.940 529.931, 109.975 561, 111.519 561 C 111.795 561, 109.932 556.843, 107.380 551.762 C 104.828 546.681, 101.241 538.693, 99.407 534.012 C 97.574 529.330, 96.057 526.052, 96.037 526.727 M 641.496 536.728 C 635.997 551.364, 623.711 572.069, 611.964 586.500 C 603.828 596.495, 585.940 613.473, 575.733 620.889 C 570.930 624.378, 567 627.432, 567 627.676 C 567 628.417, 569.104 626.952, 579 619.325 C 601.720 601.813, 620.132 580.585, 632.761 557.343 C 638.052 547.604, 644.422 533.088, 643.714 532.380 C 643.480 532.147, 642.482 534.103, 641.496 536.728 M 316 538.274 C 316 540.809, 316.394 543.125, 316.875 543.423 C 317.681 543.921, 317.197 535.026, 316.367 534.083 C 316.165 533.854, 316 535.740, 316 538.274 M 318.150 549.250 C 318.008 551.860, 317.733 552.008, 312.750 552.157 L 307.500 552.314 312.500 552.931 C 318.437 553.663, 319.295 553.172, 318.728 549.372 L 318.300 546.500 318.150 549.250 M 292.935 549.502 C 295.374 550.315, 299.649 551.192, 302.435 551.451 L 307.500 551.923 301.500 550.566 C 298.200 549.820, 293.925 548.943, 292 548.617 C 289.003 548.109, 289.138 548.236, 292.935 549.502 M 112 562.372 C 112 563.383, 123.759 580.733, 124.939 581.462 C 125.481 581.797, 122.983 577.672, 119.388 572.295 C 112.361 561.785, 112 561.300, 112 562.372 M 132.076 590.680 C 138.251 597.508, 144.998 604.139, 144.977 603.360 C 144.965 602.887, 142.040 599.579, 138.477 596.009 C 134.915 592.440, 132 589.177, 132 588.759 C 132 588.342, 131.472 588, 130.826 588 C 130.180 588, 130.742 589.206, 132.076 590.680 M 148 606.402 C 148 607.446, 155.354 613.979, 155.907 613.426 C 156.141 613.192, 156.141 612.888, 155.906 612.750 C 155.670 612.612, 153.795 610.949, 151.739 609.054 C 149.683 607.158, 148 605.965, 148 606.402 M 162.115 618.816 C 169.396 624.362, 172 626.186, 172 625.739 C 172 625.080, 161.282 617, 160.408 617 C 160.035 617, 160.803 617.817, 162.115 618.816 M 175 627.843 C 177.777 630.154, 187 635.391, 187 634.657 C 187 634.400, 184.863 632.948, 182.250 631.430 C 179.637 629.911, 176.375 628.015, 175 627.216 L 172.500 625.763 175 627.843 M 551.750 636.068 C 549.688 637.157, 548 638.271, 548 638.544 C 548 638.817, 549.800 638.122, 552 637 C 554.200 635.878, 556 634.743, 556 634.480 C 556 633.826, 555.993 633.828, 551.750 636.068 M 515 652.500 C 513.075 653.241, 512.175 653.862, 513 653.879 C 513.825 653.896, 515.850 653.292, 517.500 652.536 C 521.362 650.768, 519.566 650.742, 515 652.500 M 317.250 670.716 C 318.762 670.945, 321.238 670.945, 322.750 670.716 C 324.262 670.487, 323.025 670.300, 320 670.300 C 316.975 670.300, 315.738 670.487, 317.250 670.716 M 417.264 670.718 C 418.784 670.947, 421.034 670.941, 422.264 670.704 C 423.494 670.467, 422.250 670.279, 419.500 670.286 C 416.750 670.294, 415.744 670.488, 417.264 670.718 M 333.776 671.733 C 336.128 671.945, 339.728 671.942, 341.776 671.727 C 343.824 671.512, 341.900 671.339, 337.500 671.343 C 333.100 671.346, 331.424 671.522, 333.776 671.733 M 396.250 671.735 C 398.863 671.941, 403.137 671.941, 405.750 671.735 C 408.363 671.529, 406.225 671.360, 401 671.360 C 395.775 671.360, 393.637 671.529, 396.250 671.735 M 367.768 672.725 C 369.565 672.947, 372.265 672.943, 373.768 672.715 C 375.271 672.486, 373.800 672.304, 370.500 672.310 C 367.200 672.315, 365.971 672.502, 367.768 672.725" stroke="none" fill="#f8dce8" fill-rule="evenodd"/></svg>